<mxfile host="Electron" agent="Mozilla/5.0 (Windows NT 10.0; Win64; x64) AppleWebKit/537.36 (KHTML, like Gecko) draw.io/24.7.17 Chrome/128.0.6613.36 Electron/32.0.1 Safari/537.36" version="24.7.17">
  <diagram id="C5RBs43oDa-KdzZeNtuy" name="Page-1">
    <mxGraphModel dx="1434" dy="836" grid="1" gridSize="10" guides="1" tooltips="1" connect="1" arrows="1" fold="1" page="1" pageScale="1" pageWidth="1169" pageHeight="827" math="0" shadow="0">
      <root>
        <mxCell id="WIyWlLk6GJQsqaUBKTNV-0" />
        <mxCell id="WIyWlLk6GJQsqaUBKTNV-1" parent="WIyWlLk6GJQsqaUBKTNV-0" />
        <mxCell id="0ISA939oSE8X0OfDFbq7-2" value="" style="edgeStyle=orthogonalEdgeStyle;rounded=0;orthogonalLoop=1;jettySize=auto;html=1;" edge="1" parent="WIyWlLk6GJQsqaUBKTNV-1" source="0ISA939oSE8X0OfDFbq7-0" target="0ISA939oSE8X0OfDFbq7-1">
          <mxGeometry relative="1" as="geometry" />
        </mxCell>
        <mxCell id="0ISA939oSE8X0OfDFbq7-0" value="&lt;font style=&quot;font-size: 14px;&quot; color=&quot;#0000ff&quot;&gt;_create_fp16_partition_with_defragmentation()&lt;/font&gt;" style="rounded=1;whiteSpace=wrap;html=1;fillColor=#dae8fc;strokeColor=#6c8ebf;" vertex="1" parent="WIyWlLk6GJQsqaUBKTNV-1">
          <mxGeometry x="80" y="160" width="310" height="40" as="geometry" />
        </mxCell>
        <mxCell id="0ISA939oSE8X0OfDFbq7-4" value="" style="edgeStyle=orthogonalEdgeStyle;rounded=0;orthogonalLoop=1;jettySize=auto;html=1;" edge="1" parent="WIyWlLk6GJQsqaUBKTNV-1" source="0ISA939oSE8X0OfDFbq7-1" target="0ISA939oSE8X0OfDFbq7-3">
          <mxGeometry relative="1" as="geometry" />
        </mxCell>
        <mxCell id="0ISA939oSE8X0OfDFbq7-1" value="&lt;font style=&quot;font-size: 14px;&quot; color=&quot;#0000ff&quot;&gt;_create_fp32_partitions()&lt;/font&gt;&lt;div&gt;&lt;font style=&quot;font-size: 14px;&quot; color=&quot;#0000ff&quot;&gt;_create_next_swappable_fp32_groups()&lt;/font&gt;&lt;/div&gt;" style="rounded=1;whiteSpace=wrap;html=1;fillColor=#f8cecc;strokeColor=#b85450;" vertex="1" parent="WIyWlLk6GJQsqaUBKTNV-1">
          <mxGeometry x="470" y="160" width="270" height="40" as="geometry" />
        </mxCell>
        <mxCell id="0ISA939oSE8X0OfDFbq7-6" value="" style="edgeStyle=orthogonalEdgeStyle;rounded=0;orthogonalLoop=1;jettySize=auto;html=1;" edge="1" parent="WIyWlLk6GJQsqaUBKTNV-1" source="0ISA939oSE8X0OfDFbq7-3" target="0ISA939oSE8X0OfDFbq7-5">
          <mxGeometry relative="1" as="geometry" />
        </mxCell>
        <mxCell id="0ISA939oSE8X0OfDFbq7-3" value="&lt;font color=&quot;#0000ff&quot;&gt;&lt;span style=&quot;font-size: 14px;&quot;&gt;initialize_optimizer_states&lt;/span&gt;&lt;/font&gt;" style="rounded=1;whiteSpace=wrap;html=1;fillColor=#dae8fc;strokeColor=#6c8ebf;" vertex="1" parent="WIyWlLk6GJQsqaUBKTNV-1">
          <mxGeometry x="840" y="160" width="180" height="40" as="geometry" />
        </mxCell>
        <mxCell id="0ISA939oSE8X0OfDFbq7-8" value="" style="edgeStyle=orthogonalEdgeStyle;rounded=0;orthogonalLoop=1;jettySize=auto;html=1;exitX=0.5;exitY=1;exitDx=0;exitDy=0;entryX=1;entryY=0.5;entryDx=0;entryDy=0;" edge="1" parent="WIyWlLk6GJQsqaUBKTNV-1" source="0ISA939oSE8X0OfDFbq7-5" target="0ISA939oSE8X0OfDFbq7-7">
          <mxGeometry relative="1" as="geometry" />
        </mxCell>
        <mxCell id="0ISA939oSE8X0OfDFbq7-5" value="&lt;font color=&quot;#0000cc&quot;&gt;self.__ipg_bucket_flat_buffer # 用于reduce&lt;/font&gt;&lt;div&gt;&lt;font color=&quot;#0000cc&quot;&gt;self.grad_partition_flat_buffer&lt;/font&gt;&lt;/div&gt;&lt;div&gt;&lt;font color=&quot;#0000cc&quot;&gt;self.__param_id_to_grad_partition&lt;/font&gt;&lt;/div&gt;" style="whiteSpace=wrap;html=1;fillColor=#f8cecc;strokeColor=#b85450;rounded=1;" vertex="1" parent="WIyWlLk6GJQsqaUBKTNV-1">
          <mxGeometry x="1070" y="254" width="250" height="60" as="geometry" />
        </mxCell>
        <mxCell id="0ISA939oSE8X0OfDFbq7-10" value="" style="edgeStyle=orthogonalEdgeStyle;rounded=0;orthogonalLoop=1;jettySize=auto;html=1;" edge="1" parent="WIyWlLk6GJQsqaUBKTNV-1" source="0ISA939oSE8X0OfDFbq7-7" target="0ISA939oSE8X0OfDFbq7-9">
          <mxGeometry relative="1" as="geometry" />
        </mxCell>
        <mxCell id="0ISA939oSE8X0OfDFbq7-7" value="&lt;font color=&quot;#0000cc&quot;&gt;create_reduce_and_remove_grad_hooks&lt;/font&gt;" style="whiteSpace=wrap;html=1;fillColor=#dae8fc;strokeColor=#6c8ebf;rounded=1;" vertex="1" parent="WIyWlLk6GJQsqaUBKTNV-1">
          <mxGeometry x="820" y="384" width="230" height="46" as="geometry" />
        </mxCell>
        <mxCell id="0ISA939oSE8X0OfDFbq7-9" value="&lt;font color=&quot;#0000cc&quot;&gt;_link_all_hp_params()&lt;/font&gt;" style="whiteSpace=wrap;html=1;fillColor=#f8cecc;strokeColor=#b85450;rounded=1;" vertex="1" parent="WIyWlLk6GJQsqaUBKTNV-1">
          <mxGeometry x="523" y="384" width="160" height="46" as="geometry" />
        </mxCell>
        <mxCell id="0ISA939oSE8X0OfDFbq7-11" value="&lt;font style=&quot;font-size: 14px;&quot;&gt;一个设备上所有weight申请一整块buffer，&lt;/font&gt;&lt;div&gt;&lt;font style=&quot;font-size: 14px;&quot;&gt;然后用narrow 重构出每个sub-weight&lt;/font&gt;&lt;/div&gt;" style="text;html=1;align=center;verticalAlign=middle;whiteSpace=wrap;rounded=0;fillColor=#E6E6E6;" vertex="1" parent="WIyWlLk6GJQsqaUBKTNV-1">
          <mxGeometry x="97.5" y="240" width="275" height="30" as="geometry" />
        </mxCell>
        <mxCell id="0ISA939oSE8X0OfDFbq7-13" value="&lt;span style=&quot;background-color: rgb(204, 204, 204);&quot;&gt;直接将fp16_partition_groups_flat to 到 fp32&lt;/span&gt;" style="text;html=1;align=center;verticalAlign=middle;whiteSpace=wrap;rounded=0;fillColor=#CCCCCC;" vertex="1" parent="WIyWlLk6GJQsqaUBKTNV-1">
          <mxGeometry x="485" y="240" width="240" height="30" as="geometry" />
        </mxCell>
        <mxCell id="0ISA939oSE8X0OfDFbq7-14" value="&lt;span style=&quot;color: rgb(0, 0, 0); font-family: Helvetica; font-size: 12px; font-style: normal; font-variant-ligatures: normal; font-variant-caps: normal; font-weight: 400; letter-spacing: normal; orphans: 2; text-align: center; text-indent: 0px; text-transform: none; widows: 2; word-spacing: 0px; -webkit-text-stroke-width: 0px; white-space: normal; background-color: rgb(204, 204, 204); text-decoration-thickness: initial; text-decoration-style: initial; text-decoration-color: initial; display: inline !important; float: none;&quot;&gt;param._z3_optimizer=self(stage3_optim)&lt;/span&gt;" style="text;whiteSpace=wrap;html=1;fillColor=#CCCCCC;" vertex="1" parent="WIyWlLk6GJQsqaUBKTNV-1">
          <mxGeometry x="493" y="301" width="220" height="19" as="geometry" />
        </mxCell>
        <mxCell id="0ISA939oSE8X0OfDFbq7-18" value="" style="endArrow=none;dashed=1;html=1;rounded=0;entryX=0.5;entryY=1;entryDx=0;entryDy=0;exitX=0.5;exitY=0;exitDx=0;exitDy=0;" edge="1" parent="WIyWlLk6GJQsqaUBKTNV-1" source="0ISA939oSE8X0OfDFbq7-11" target="0ISA939oSE8X0OfDFbq7-0">
          <mxGeometry width="50" height="50" relative="1" as="geometry">
            <mxPoint x="190" y="270" as="sourcePoint" />
            <mxPoint x="240" y="220" as="targetPoint" />
          </mxGeometry>
        </mxCell>
        <mxCell id="0ISA939oSE8X0OfDFbq7-19" value="" style="endArrow=none;dashed=1;html=1;rounded=0;entryX=0.5;entryY=1;entryDx=0;entryDy=0;exitX=0.5;exitY=0;exitDx=0;exitDy=0;" edge="1" parent="WIyWlLk6GJQsqaUBKTNV-1" source="0ISA939oSE8X0OfDFbq7-13" target="0ISA939oSE8X0OfDFbq7-1">
          <mxGeometry width="50" height="50" relative="1" as="geometry">
            <mxPoint x="590" y="140" as="sourcePoint" />
            <mxPoint x="640" y="90" as="targetPoint" />
          </mxGeometry>
        </mxCell>
        <mxCell id="0ISA939oSE8X0OfDFbq7-21" value="" style="endArrow=none;dashed=1;html=1;rounded=0;exitX=0.5;exitY=0;exitDx=0;exitDy=0;entryX=0.5;entryY=1;entryDx=0;entryDy=0;" edge="1" parent="WIyWlLk6GJQsqaUBKTNV-1" source="0ISA939oSE8X0OfDFbq7-9" target="0ISA939oSE8X0OfDFbq7-14">
          <mxGeometry width="50" height="50" relative="1" as="geometry">
            <mxPoint x="615" y="250" as="sourcePoint" />
            <mxPoint x="610" y="340" as="targetPoint" />
          </mxGeometry>
        </mxCell>
        <mxCell id="0ISA939oSE8X0OfDFbq7-22" value="&lt;span style=&quot;background-color: rgb(204, 204, 204);&quot;&gt;建立flat tensor 的grad&lt;/span&gt;" style="text;html=1;align=center;verticalAlign=middle;whiteSpace=wrap;rounded=0;fillColor=#CCCCCC;" vertex="1" parent="WIyWlLk6GJQsqaUBKTNV-1">
          <mxGeometry x="860" y="240" width="140" height="30" as="geometry" />
        </mxCell>
        <mxCell id="0ISA939oSE8X0OfDFbq7-23" value="&lt;span style=&quot;background-color: rgb(204, 204, 204);&quot;&gt;对每个param注册梯度累加hook&lt;/span&gt;" style="text;html=1;align=center;verticalAlign=middle;whiteSpace=wrap;rounded=0;fillColor=#CCCCCC;" vertex="1" parent="WIyWlLk6GJQsqaUBKTNV-1">
          <mxGeometry x="840" y="301" width="190" height="30" as="geometry" />
        </mxCell>
        <mxCell id="0ISA939oSE8X0OfDFbq7-24" value="" style="endArrow=none;dashed=1;html=1;rounded=0;exitX=0.5;exitY=0;exitDx=0;exitDy=0;entryX=0.5;entryY=1;entryDx=0;entryDy=0;" edge="1" parent="WIyWlLk6GJQsqaUBKTNV-1" source="0ISA939oSE8X0OfDFbq7-7" target="0ISA939oSE8X0OfDFbq7-23">
          <mxGeometry width="50" height="50" relative="1" as="geometry">
            <mxPoint x="613" y="394" as="sourcePoint" />
            <mxPoint x="613" y="330" as="targetPoint" />
          </mxGeometry>
        </mxCell>
        <mxCell id="0ISA939oSE8X0OfDFbq7-25" value="" style="endArrow=none;dashed=1;html=1;rounded=0;exitX=0.5;exitY=0;exitDx=0;exitDy=0;entryX=0.5;entryY=1;entryDx=0;entryDy=0;" edge="1" parent="WIyWlLk6GJQsqaUBKTNV-1" source="0ISA939oSE8X0OfDFbq7-22" target="0ISA939oSE8X0OfDFbq7-3">
          <mxGeometry width="50" height="50" relative="1" as="geometry">
            <mxPoint x="945" y="394" as="sourcePoint" />
            <mxPoint x="945" y="341" as="targetPoint" />
          </mxGeometry>
        </mxCell>
        <mxCell id="0ISA939oSE8X0OfDFbq7-26" value="" style="shape=image;verticalLabelPosition=bottom;labelBackgroundColor=default;verticalAlign=top;aspect=fixed;imageAspect=0;image=data:image/png,iVBORw0KGgoAAAANSUhEUgAAA1QAAADpCAYAAAAj3XZrAAAAAXNSR0IArs4c6QAAAARnQU1BAACxjwv8YQUAAAAJcEhZcwAADsMAAA7DAcdvqGQAAGVySURBVHhe7d0PeBXVvS/8r9WrlT9JBBJDQUNkWxWxEqQiWIuebW7haPEUApziY9X3FCMter198Zgi+vIqULzy9HoVG2POuUp9Sy8Q6BH1wLkxVbSCWhS1iFU3BlQgJoAkgP+u1netNWtmr/mz95492YG94ft5noE9sycza9bM7L1+s/7s4yoqKr5GROU/vhAX9NuB9Q9+hIN6WWE6CbGfn49B776O9f/7c72MClcRLphzNsr1nKP1r3jq91165hgyogJX/P2p6uXBTcY1rpb3xtuPbEVit7WICsTAUzHu+gr0ka/TXNfqM7pSvMjhtd/nPw/DuFFqz2j795fxymvq5VH0fXDk5TIvnWtAbKm797rc1ll7+T1JROTVrYCKiIiIiIjoWPYN/T8RERERERFliQEVERERERFRRAyoiIiIiIiIIgrsQ/X/XPGhfkV0ePy/Tw3Wr4iIiIiICgdrqIiIiIiIiCJiQEVERERERBQRAyoiIiIiIqKIsgqo9sb+gnXDf4NP9Xz2ZmPrSLENZ9qA93vptyiSi//xK1z/j0fLT4l9hWUrduDpG/QsEREREVGeO4w1VH+P94dfi/e7lmL8q+fpaSxO/0S/TVkbfuXf8O3Sb+Cd/3WcXlLojsf0p0sQm8SgioiIiIgKw+ELqHpdiV0nHsCwXYv1AuqWS77GdyuB3c3H4QW96KjwcDEWvNhLBFWduEcvIiIiIiLKV4cxoBqA/folddfX+NGIv+GL1m9g3V/1oqNI47x+2NC1H9Me/FwvISIiIiLKT+l/h2rACqw7/Rzrte2L5zFuy89wsp5Fr9/gxbMvSQZL3vdtaluDMeyv0Zr5nXHN7zEYK/DcY3/QS5LK/qEeZw98E3+tX4L2cXfh+xcAH/56OXrNnIt+dkI6vH/7I4z8xVT00XPSwVd+jFfX65lhszB2/LnoWrcEGJdqO+diuNhH0e75SGAWzj6jRC9/V+z/Tryn5xS1vYtxgp7Fpy9Y6dWzCJ1u4ZKvcf0I4J0Hgmqn/iu+nvnf8PXufxbR8hz8zUnTX3Hcr8+Dq3HgP3QY7wufPoNv1P9nPSOM+wv+JtJ03K//JyC36aTpEXzjMbNN3sP4+hfXizAv6bhX/hOOU3lpp+cRHDdQrCO38Z6RNr0t3+9Q3dCJ7ZO+wIZ7SzG9RS8zXbcYq35YCbSuweTZS/VCIiIiIqLDK2UN1aenbdABkN3f6Tx8t0u/aZNB0tkj8C1znc8uwXpn4ApjEAoVmPXF1rONQSlis9VaofUZhDL90tSnryiYH9yZDE5wJgb/wgp0nvv1j/HcuhfwZelUjByn31aBUBX2y/f09Nf39qPPBfUYPkyvopSg33j/dsb+w7n6fcsJZ8y1Ajq1rfnY96nY/8xZybTKYEkFZ8n9fXjwYpxtrqNkSrfl4kF/EycI6NTzgc74b/jbwM34xq//k5j+Gcd9erYIbP63flOQwRIW6vflJAKeky/D3655WK9gE3/3Cx2gyfXWPQOUisDISZMMmMYAznbEJPLy6ws68LWZl2dcD2y13sNAEUz1/QO+8cpfxbZ+5F7P9vA3RZD6CcqG6nkiIiIiojyUIqCajdbSvijpmJ+mNunv8X75Ob51+u96HiUnjkCHGr1vMYbpQGv8+2+J+QOuAG18Inx/qoMHjAaDsrbnF3bwcy569QG+PPCOessma5s2/Nub1szWnfhM/PfNU+xA6E1sqXfXILW/8ya+FAHUiaV6gfble/ON7SxBW4cIoAZe5g6EXLVNYttb3wVOPhdlOn3Dh50ptrNELFcrKO+9IoIlZ52k9Om29BXH+0Xbcdii5wO5apv+O47bKoKXk6uSwcv68/CNf/vveka6ARDHhj5DrFmDrG1y1t26XdVyfX3Kf7Xm5bbrPTVf72wW/4gg18xLkR6rxko4WW4z06gTJ6BdBPCx81M0+3t0NiZPnszaKSIiIiI6ooIDql5noEsEP9/a++96QZBhOHgisL/0nmSNk5xU87++OJjj4dDbPxal/ZPLVBO9sm+fK4rbJSgS/9s++1gHIcp+fCGDA8cf8OqvjUBFkrVGv/h9cjKb4xnc29WBnU6Hw1U7JnS0G8HZt3GiCCBkLZZ/f94ALkS68TVOtpvepXNwu36hdewW/5hBjqxZ+j/42y+S09eeYNIijteVphtwnKyFMoMxWdtlbOdv4y/Tbxhc6WkTgZl+SURERERUwLo9KEVJx23JGidjGrZHr5ArKkgpRa9hsokfsO+VFwBVU2QFLFlR/ZVkrZFuWmc3r9NvZ/RpOw7ql6m5gyPXvozJ6bMV2nH4NPIPgdnBke7XdLLsV6Wb6YnpOFfgFJLqZ3W21S/K3pZsFpgjXR1BYS4RERERUX5IE1B5a5n+Hoe+qV8qW9HnC1FEP8nTZq2n6OZvcjCJkj5von39M+jCuSgbNwjf9NXspFd2iqyKeRdtrpqfcPz9tQKUluEEEbl8omph3sEXIgA6oe+31Vu5cEBEcyeWf43hej6U0oHiH7tm6BzV7A7v/U93U70oTikX/4jAzNV8MBe+RFkR0L7reD1PRERERJR/ggOqT57Et0Sw9H65PbiE/FHee7D1RDWj/TtOb3sLKLoWL57293pZT5KBSQmKxv1nfHP3MyKgEUHVbqDfMNnszw5ewlHNB3Vtl+IdgS8FOZrg4NL92PeKf6RBh9yWqv1arvto6T5VAYNZRPXCTnHaTv4ag8/WCzIZ9r91LZIdQInzJk9s3+QIjl9fk6rJXwYfiyANIqhy8lLsK6jJX7Zu+Awx9EL7Nj3vJUf5W7UKqxZfqxcQERERER1+KWqoRLC0ZSlOP/ESrFd9o+7BwbbzMK7jgH5f2zNVDTbh60fljPKXS2/ik4PACScDXe9YNUtqIImTS3BCqCZ4hvV34sMOOYKf3Z9JjsC3InAbfS5I9ns6+4wOfPjrma7BJRQRLJl9oz4zB5aQxP6ee+Vdfz8q3yh/IT0vG+99jYEjfCPeJ5Ve7+rT5BpYQg4ksd4arc9e52s8Yo3Al6315+E4kZdfj7f3VYXj1j3SzZqvr7DscpGWbUXBQ6YTEREREeWJ9L9DdSzTtVYyOErdz8n6Hap+B4N/H6tHqd+i+hq7m70/7qv7Rx30/lZUfjN/h2rGvA7cftGJWD6+GLfpZURERERE+ajbg1LQEfL8cXin42sMrP4bxodt+lcIbugUwdQnSKxmMEVERERE+Y8BVQF74X8dbwVV6Zr+FRSrqV9idQUu9/6+MBERERFRHmKTP8oLZpM/IiIiIqJCwRoqIiIiIiKiiBhQERERERERRcSAioiIiIiIKKLAPlSVlZXYtWsXPv/8c72EiIiIiIiIvFhDRUREREREFBEDKiIiIiIioogYUBEREREREUXEgIqIksbdjt+uWoXF1+n5I+4rLFuxA2/M+0rPF7j4IbyxrhP36FkiIiIqfAyo8kn173BTSyuumanniY5x9zz4IcZiAB6Yd7xeUuBaemPttv2YxqCKiIjoqMGAiojy0ox5HZg2tATLp/ZGo152NLjt54OxoUsEVQ9yFFUiIqKjAQMqIso/8UO46aJPkFhdjNv0oqPH8ZjeMABdQ9vw9A16ERERERWsAvodqhmYsHoOYlsXYiVmYcaYIr08gSfj1dis55SZzbijJqZnJO86i3BNyzSgqRLNg15Psy1rn6OK9aywf+NCPDDXel5ePl/87bAteHLrcFwpt9G5AY31wJS6sSgJSlcKajtOGrzs7dhpXg7UTMMQ8c52kf4tI1pxpThUJ12y2WDdcCQWLRH5YKQ9sRx319bpmcMsizT58kLm6aSr0aZnrXMLkScrUG6eG9+2rPyS+WST+fWYOD/Ja2k5EsOmqW3I/HOuqyh5Jfse3TwSvfUsul7FfdcvwPNq5hLc/sgtGCk23frEZMx+VC1M/o29rpo/C2/fL87jddb6SusaTJ69VM9YLvnlb3HLKGdvnv0B1y5ehYkQf7flPKz6YaVeegiv3v8TLFivZ5Vk2kyudIaUKU3KdYuN9FiC9iVrp24f1gsLgmqncng92fdw46QPUG1cL+Z9rqT9TAl5b3rc8+AOTCsdEHyMREREVDAKroaqZMwcqwAUr8Td8YXY1BnDlat/h3L9vipsjXhFvCffT7GONqSm1b+thkX6XaCqYRZQb29HTE0JtX9XH6fisbiydC3uXrQB+4uHY8rMMvwpvhzbEcP35s/QK6XXNvd8a/tyG2JeFsaS6XcHZUNqJmDPoko8mRB5Uf06vtexEI0bu0S6pqJKrwMUYVSdFXw6241Nw00h09MzQqRJFFqnYIlx7CIfRf7OMM6JRZynFv+2kudFBkwXYIuznUqVR0NqXseEar2KUDJmGgY0W++VDJuFKfI8inOM2ATXehnJIEEFQpMxebI1rdk7Erc8crsIV6TnseD6+/BqF1D5w8W4Vi0Tgcx1RjCllkm9MfLmW3DWO/dZ27r/VRyqnIjf/tLakiL2N0MUwe19TZ68Bq1FYn+LrS07xN+tGvcx7lPryP2LbV9np0m6FotXiWBqrwi87G3J/el3sxImTTJgFMGUDKCS6wUFbl/hsmGfAB0npAk0cng9yWX6AYtaT93ns5LXQMjPlHD3ZtJtr5eIw/hSXM1ERERUyAqvyZ/rCXMj1jaL0osIZKrswk/z1XjA9ZS6EZu3ipJscRkG6iUO+UTb2FZbh/iv9DSnkLS59nyxfT0j1b8iAiVRWBpkBiZd2NRk768I2LoiVK1UZIm1TppKitvxp4An35LrqbjIkz/JQt6wS31BZWqXYt7vn8JTTwVP90eIzTKmqb7a8yS/DlvEOuY5scmgM7mtD1Qgmjwv4rqY5A5E29ZvEesUYYBZehXXUrOqsRKKRdY65zEbIjAaV4lDmxpdNT9LnxCBSdFZ+P44vUAFVSLIQCUmiiDjkl/OwMiiVqzx1uAIhzbdh5/8Si9dvwAtrSLM+vb3k4HQo7OT7ytL8RexDvoPNoIlwRWsPY/n3hGhUtEpOEPNyxqluEiNSIOn9iuSMGmqPEWEi4fwsVye1pcoE7dS4vWT9Hyw3F1P4h4WgZBVeykk2t3XStjPlJD3pmPbCWLP+3EBm/0REREVtMILqDo+SDb/kryFH6GqoRV3iFKoPaVqTre/Y5t+ZdlcW2kEWIJ8Mm1s5w5PEzJLO9qMoGv/zgyFqG5ypbmzHbv1Sy9vOnZ3pAgqU3oW8358Ba64Ini6OcJhZk6TrFky89tqMuXXhT2yYOyow2NxI8CSZBMtYzt3qGaYHq5ryX0ewzsDp4jLq/eoW7Bq1arkpJr/9cYprtZtSzFb1zjJpnGtT8wWS/zad7tDrPf2ugMhq5mesS8xTXS3ogvljP69gda/BKYheyHS9OjjVi3Zzdb7KYdmj4uASr9MJ3fXk+fcywBKXE9OgCWE+UwJe28SERHR0eUoGZQiWcCWBZ8rY9YTZ7uJjmx2kzXVT0MUwmUtlt6OajKk3y5I+VjIc9Jk91eTfVOS5042n8qa7u8iazCcc6ebU/YUWatkNmNL2ZxN1dJYyga66pPS6/oY76kXdp+nVqwx9rMmY61PTwqbJllLl3yv8odWYOVqzii1nCBCnIh64HrK2WdKoF5odz/XISIiogJT+AFVrAwlzhPmGSgvFf8ZTW8iU9s1m/MVtoGlRf7avbRy3+TPy52moRigBofofpPJ8kGyfiORuclVTryHj0XZunf/ZP1RSroPkQq+nmhF71EzcLvTJDA1VZO090PddM+qETu06fHc1Cx5mwkaAV942adp6exkYOVqzqiIgErkaez87AbF6ZnrKYefKV5Dv0QRTsQHLXqeiIiIClJhB1SyFknVRNiFJn8/qPQj6KXha0roHzUu53RfoCEjvIMwdI/MA/WEPavgMPdN/kz+NG3Dnk6gpHSonrdrBvRMFtp2yvqNMpSbgwoENfnLghw1TzVl8w78IGtd1svqFs/AET6XOINQNMq+Ro/OFsGEbP5mD1IRTI6cN7HyEF59wg5V/AGcGtEvQpO/pVtEuotG4iq76V3ACHzhRE3TJRjcX/znBIu24/HM1l4i4Pgs9I/f9tz1lMPPFI97zhd3e9cJIvQnIiKiQlZ4AVVsWrIvgygk7zcHJxA21+qRvOy+DnIUPzlyW7aar8ZKNTKc3W9CjgImR/fS7/eIOjymRytzjrGlOXCEsEyS6Zb9PdrxZNwzwMYRkD5NjVhb7z72K7E8WtOq+mo8mZCjwOn9qSG2u9NcUxf8UxHBkVXj5OlH5Yzyp0fTKxKB0aPJQSiWztaDVKxyB1V2Uzg53TKqHWsmm0OdiwDuUasflr2OHB79vk0RxuYT6ZZ/5+xPjQgo05StcGmSwaH9vjXpEQYDBsVofL6XGrBhwryv9BK/w3U95ewzxRQ/hAki1ks8zSHTiYiICl3B/Q7VqI4IvxF0LNG1MTLQNDvVH1H5mKZ8pH+Xqj3Cb0AdjdRvUV10IpaP9/y4b8FfT19h2YoPMbajHEN+nn4kQyIiIsp/R8mgFER0tGmc1w8buvZj2rrO0E3/CsE9D4pgqqgEyxlMERERHRUYUPUk+SRdNxNKPbl/bJYoX/ib6AVMTrPGnnA8pk8drIKqdE3/Copq6ieCKW+tGxERERWsAmryR0RERERElF9YQ0VERERERBQRAyoiIiIiIqKIGFARERERERFFxICKiIiIiIgoIgZUREREREREETGgIiIiIiIiiojDpmdlEa5pmYaSjQvxwNxGvYzoWHMtFq+aiLJN9+Env3peL8vSdYux6oeVekboehX3Xb8AEbd21JK/BXbLqN56Tmhdg8mzl+qZPGWf27w5p5/j6XVtiOk5IOrvgIXcTvwQ3rh1D4r0LLoGYMHU3sj6GyNX2yEioh7HGiqiTGY28weYc2nc7fitKHC3PjEZkyfr6agIpi7B7Y+swqrF1+r5bhKByS2jgFfvN/LpSAZTMlBa9VvcPk7PF5jE6goMGS+noGBqKK5feg9+8wd7+hnG63eSTsLl6u/FtLpEL0ulFzbcq9cNCoIu/TEWOfsS06//Tr9haOmN7+j9LXixl15IRET5iAEVER1Wl4w9C727XsXjj+oFFOja4ZVAawsWrNcLCsWjswssSJbB1A347t7/wM9+dJua1rRWYGJgUJUDMpj6LyOwZ421r5/96D/wXuUPgoMqIiIqCAyoiOiwOqO/0YSNUrgEg/vrl9SjzprzY3y3aAfW/OKPegmw7hciyEEFLp0zVC/JFRG8XT8CRa3/gcWP6EX4Ixav2QFUjsX1l+pFRERUUAquD1VVQyuuTDZid+y3+zXJ5lk1wJPxFShfPQejivUKieW4u7ZOz0hWf6ghek7a3lSJx+r1jBa0P2dfWSif/zpmjHFawwOdG9A46Wq06Vmbe39d2LTofKxt1rM2dYzJREVJT844+f0Khhv56U/TDEwwz4fgXUfl0bAtIl8+QHW6bXmOX5xcsf9qbFavrfOKpuVAjbUNeV63jLDyNZu8SnWtKfb5s4+/CbhSpUmmxc4L4/yFzqdwrl28ChONLki2Q3a/JtWPBVgz+XEMfuQWjLQvPV8fHKs/lLkp2RRvtqf2KGh/zr6ypLbVP0X/Gifdf8F5Rrqy3pdsVnjzWXj7fpG316U7fsHu82Mz11HbGYneaBVpmg37L+2+TSpdG76v1wkWlJ+ZyeaDIt17g/tMBeWhlab2ZDqzyUvnODUjD1Jda4rZTypdPrp4r7lDePX+nyRr4rI4d74+Zt5tKVbfJ6yuwOUP60WG8b++BxPxH/iZEVDh+p/hNxMrxPG9hv9x7e/xtl7suKET2ychTR+qT7Dl3lJMb9HLHH+H2X/4gTgptxkBlU6DyJCuPz+MuoXb9NKkGfM6cPuwXuxDRUSUpwqqhsoq4MoCayXultOiDdgvlvsLpTFc2TIHsa0Lk+vFpuGamfptVbi/AFvs7YipcWMXhtSY/WTkOmJ/paLg7Ky3HNv1u1kRhekpWOLsS22neCxmNCzSK0h6f+bxxZeIoOB3KNdrSDLokMGEDBLs7a3E1CPcv0fmtwxidJqaEigZM8fIb3nuZgH1yTQHraPIfPFta1by+Kp/h5tGvJLcTnwhNnWK/a9259OQmgnYs6gSTyaAkurX8b2Oheocl4yZiiq9Tiaba5NpsIJbe59icgXDYv/V7eI6kddHGb63Wu5bpqsIo2rMc5w5n8KwCriygK/71dz/qihGBhWUKzFx1S046537kutVTsTi6/TbqtB+Hv5ib0dM9206hMofmv1krH5BqvDurLdGhBdZkoXtVavUpArnRSNxi56XUzJNkkx3HB/rvkMyTb1HzYjQd6c3Rt58C05Zr9P9hEi16/itArkVdNjHdh9e7T8x2Q9q/QL8ROWvSJO9TBT4Z9jBlMxvuY79t13ifVnwd7aXXTCl0qPyRAcSIr12HkXrvxQiL+W5EcEUxPE46d5ynpNPS2frZTL/VMCi5+VkBsV2Uz87H4LIYEkPaGJv475NEOfJew1kPncy3b4+ZpO9wVQmQzGwv7i79+zQ87LGai5+c+nHWPPnA+I6PUXkYA5deioG4AD2OjeQ1Xfr0j3/gT+LPCsaIII4IiIqOAUUUM1Aean4L/GKrokQmp9FolMUmEv9zTJkwOEEWc0fqMCrZNAMax6NWDvJrtGwtK3fItYpwgC7RmLmVIwqFoXoen8tUtbqqz0BXx22yDJ66WlOEFA+f5a1v0VmukQ6a439i2BiypgiFUCaNWltc6v9tVhp/RPuf+opPBU4rcC8CE35XbV79StEMCGCmhHJYGJzraemrf4VFZwmz4nNClycbSXa3eel+Wo84KppbMTmraIkUlyGgXqJkljr7K+kuB1/ilALlI3tIl3WeSpCSUdy316Z8ikz3RSs9S9ObQnWP4e3RRb07n+GXpAka0ecIGv9h2gX/5UNvMSaF0XhBdcna12k5ze8LYrMvXGKXYq87ipRsBeF6Ee72R/GKWxPxhpZmJQ1G04h2Bt0uGsZfGnKgqt26NG/qEAwefzX4ioRGLU+YeaByJP1svB+nnhXkwGTU6AXAeZ1I9FbBE1Z1ZiF9PyvfqLzJCg4yzZYkDLl5bVYLGuVvMcjzlf2tWqZXftDkXfi3Dca+3r+V43qWCuHuwfzSH/uxJ0wsEz8244Ps84TUwX6Gw0HZE3RfxmwAT+79vfZPzQIo/KU5Kh9qrbqBvR/9jbULUwGdEREVHgKKKBqRFuH+C92QbKGofpSxIpFIfU1s4AtdWGPDFgcdXgsbgRYkmyC1dKanOrGwhy3qXyQ+LLu3ILNWQUqqVi1T+b+vE3JBpaKr9lM+4uViTR2IbG+u8HBv+LmK67AFYHTVMwzWr6E481vfa6MgFHVLBnHf4fR7M2tHW1mHsgASpw7M4CUNZVmXrqaUmr7O4xmM53t2K1f9gz38bv27RIinzJ6Hh/uFf+ZBf5x38dZIgtat3ibVx3Cx65S4VLMFgVzV8HZqDlSk6fpmiq0dr2N57pVaM1T4wZDFskrf2gcv5xUs7UyDDZrcUSAYdXeyZqjVqwJbMpWgHQe+K+dnmA9DDj0znOe4Px5PPfOIaD/YLFGeM//qkUEPbIGTp63qKMP7sBeGbiKwMqqKXrY3fSv6+PcBlatH4tPAaFSjvI3Fnv/h7vpn1lTRkREhaOgmvzt7pBfRbLZlC5MiyAIntqaUHQfHFnT4zTh0s0Hc8/uO2Q25bOaoh31Oj6wam1kMCUDVtmPzcmDaM0nrWaf7uZ3silfQbPzKaT39soGfnZBUky6uVbWNQq6z4tsuubUgujmg8cSWROSrAWyJ39tUHIwDU+wRUeI9YDAqs2TTQSt+8HddDCTbdi9Fyj67g90TVHyYUjlgL76VQ49+xH2oC++O/EUPPuj+XjkWb3cU1NGRESFpYACqkWoHlPk6jskpygd+lXtExKZm4F5m5FVn+aqxQpnKAYUy35eK1xNDL1UsOjdn5e3+VtkuW/y52Y1z3RqanTN2qYmb01ituxmn6mb1BUWTz6FYjdTcwcAUZqfWU2mWtGS6W+LToGrMaGu1Sh4viaQqcm+TRMrrf5Da1pF4f2627OqTclbWeRB91m1q72//X1P3l2C739bBKt7P/TUXIUlm67agZUIhDxNBzNp3XNA/LsDW4yaItkcT45a3/X2y/4BKbpF14i1/hXrrAWW688W99gBvL0hm88CIiLKFwVVQyX5+9xkr22nKkKg3BzowNPkz+pTFcP35uv9BawTzjbs8fTzCho9rm3uWmyXtW+uwRVmYEKDMd98Nf6UkAMuuH9ktnx+c5aDUuS6yZ9bVYNVI+cErL5A0D/CYjj+JnK+0RN7gk5/bFz3rz2TL58cchS09E/bc1EAfn63dR84tS3ekd4Eq89NJeK/1PsLWOfIyZxP6S3F42qQhlvS/70zCEWjqrVaOnsNWuWgGr4f8A1ojtlDVC2lEej6R7sLK0UeXLfYnyetH6v+V2eNjX7tLd3SKtI9EjPs60m45JczrH56T3S32eEZOEV8FBza+56eD+fthRvUEOkTjd+BGv/rH4it7cCzASPudc82PPKsHCL9B5h9vV4k+1LJEQVbNxg1VkREVEgKKKCqw2N6VDSz/4yaPCO8ZVRfjScTRRhVp/++bjgSizxN0GTfHXN/dWX4kxpRTr8fWiPW1lujDNrpvRLLA5qpyX5eYvuQo9zpdLXMAprcg2LIkecaNyKZdjFNwYojXGNj5KWYrJERjcE1RF6uVKMo2uvIke6i5KU8fj1Cot6XGmZdjcLXg7zXgpyyveaUDPlkS1sDtBSzn2hVBWDV3M+cHsmy1uTR2VZti24qtUoNVe0ZwU8PyODs7+ZT0JJuFLfDKQc1ZXIQCKtvlM4De7KDJT0CnnsgBescqBH4PEHV0tkyb4zmmGKKFuylZw3kkNzPLf1b9Ch82VMDYYi/deXB8L/4m5B6rwU5Gddc6hEKjf5NcnCS+18VH2DJbVhDvWc/4IYc7dLehjVZowdmX1v7Ryy2f1z3D/eoaWL/1/A/fvQbdy1SrjzyG/xszQ6cMdHa12/+8AMM+LOn7xYRERWUwvkdKl1DtN8cJU3Sy2VfqijN/6ibVH+0suTvLVGwXOWTriFqN0dAk/Ry2ZeqJ0afIypc6X+HKpLIv0MVDX+HiogovxVODZXqhxNAL9+/k18zdAyoPCW4uZ1e3r6bwRQRERHR4VQ4NVRCcH8ZOeLbEagdCdWn6gil7XAqwBqqUP2uOjeg0fXjvd2Uw3wK7i/j/r2hwyZUn6ojlLY8EqqPk/xtLvOHcilHrBqqZLfVkuCapYxCbkfVUO2B8wnTNSBazVKutkNERD2uoAIqIiIiIiKifFJwo/wRERERERHlCwZUREREREREETGgIiIiIiIiiogBFRERERERUUQMqIiIiIiIiCJiQEVERERERBQRAyoiIiIiIqKIGFARERERERFFxICKiIiIiIgoIgZUREREREREETGgIiIiIiIiiogBFRERERERUUQMqIiIiIiIiCJiQEVERERERBQRAyoiIiIiIqKIGFARERERERFFxICKiIiIiIgoIgZUREREREREETGgIiIiIiIiiogBFRERERERUUQMqIiIiIiIiCJiQEVERERERBQRAyoiIiIiIqKIGFARERERERFFxICKiIiIiIgoIgZUREREREREETGgIiIiIiIiiogBFRERERERUUQMqIiIiIiIiCJiQEVERERERBRRQQZUNzbci5YWe5qFG/Vyl5mzrPdXT0dcLyIiIiIiIsqlAguoYli4+l5MwTrE47daUxMwJVVQdbio4O1OLKzW80eT6ul4XASmDTP1/FFGBecMuomIiIgoooIKqG5sqMXoDhFM1bboJUL9EqxMVGDC/JheoInlKuCatAzG2kRERERERDlTOAFV9XRMiB3AS03+8Oih13agz7ALWctARERERESH1XEVFRVf69eOyspK7Nq1C59//rlecuTF59+JOaUvqNop9XpMX+uNzs1YWA/cXNcPa+NL8JBsfldTYb0nJTw1WpJaB1gZfwtVLeNh120d3NiAq+Ym9JwkmxjWYnSxnpXk/nStl2wuNsVTMeYw1kvubx1ON7dnpE1tq9T4G8E6zn3i78RxiXCxQaQVTeuAGivNiaZbsXmElQZv2r1pk+vWinyyWMd17tYG3I/pybzEDr0ve9/2cq/kepnZ6Tb3b0umw53vqanjkk0+XzvHOM8i0F50F+Y0y9f6nHlrMgUrT2Ta3efdy8lL+1oyz6Vg5607T4mIiIjoWFQgNVQxxIf1ReI1UaQVhVwryLgVK2UZvOMjd5M+u6lfvAEvdeplgSowpeVi7F1k9cVauPEA+oyZ7uoHpZoYQhSm1fb0ZBSsH6rVy5p2iDlZqA9ezyL3ZwUP6v1Fm3EwNj7rvkmxGivN8tjLq+/EhI4Gnfbxuh9ZQD8zsa/yGn8/qD5jaq0gVa23DgmZxgarnq9l7l3JdIp5GTw42wsdTCWVDwoKXyrQXwSXbTvDBVMOkW8t1fv0eZHnuS9Gz7T7QSXQsvWAWOdiT5+2OKpU4LlOpL0FtfpY1DUkAybn2G5NBnfyWpLntrgKN9tNSsX1x2CKiIiIiGwFElDJgvcB7BXl3BtHVIjS7FtZF+j9zFoNEUCsT4jAoS/6O+X+GE4vFf95A7ZukIVwp7De/BHaxH/BgUYaiRecNPcp3oe13pqdmeMxungHVpq1M83LsFasFhvhaRTpqr1rwWa5qdJTc9x0cgf2GoGtrPlyBoGoPhXl4jzI85oVV42RDqCK++FMNS+DwRfE0r44d5yRtzPPEWf0AN4U5zkrIqhKBttxNNRUqBosBlNEREREJBXQoBT78H6zFeQc7JA1QuZroXMf3rVe5UhCBC5i27I2JCfDr3sDB6uWJGxTN5tzvFLAMccH9RP/ytowe1h5a1LN/3IeLIWRwPsdIvgrlc3zrJpGFIv/ndojeV71y5yxgkOzX50ViCeD0WzI2rqVib4YXTceMRHM3Z/lOSMiIiKio1dhBFSqJkMym4gZr2P90Ee9n2N280HZ7K24CnNUcHKEh2gPRfYTSjZhcyZfM8TD492OAzqYE+cMm7FyI6zao546b8JDTfKc2YGb1dxPNRmNRNdWSkZNGBERERFRAdVQSVbzMdVMTjXhssjah4NbX+65YKF5Ga6SAYnqT1SBqjz+TaaWnfvEv/1weh79JpaVJkGcs3Jxnh6Sze6GXYgbZW1azmsWteaX8WanbvYnr5XOzVgRsZme6ksnm1Gq/lrJfmZERERERIURUKn+RjJIsPrLyMEU5KAEKzceQKzmXjU63mFphqVqVAL6/CT2qf5Xrj47WVK1OEbtR/pR9tKoX2cN0lCXo5o03dfL1/8qGzJ/imO4ubqf1YdJBjuowoRh4r0c9lFz09eKCNwWpgm4rXw3myB6OINQyIE4EphTbw0m8rj3d8+IiIiI6JhUIDVUsmbKGjDCGX1u0jI8ZLy2C8tq0APVNE8PT273gWq50zPqWyZyuO9kHyQ11fRzDWThkDVYTTusQM9eN8s+Vy1zl1m1H/rv1eh7avTAbIlC/yRdk2KnRU/ZjihoaUGtHpEwua0sgzUVlPUVwagIclTe6WCnuK+7T1iOqcEpiqswOrbDP3iHluwflcwnO1hS15IcNj2xLjkIhTjX96tBKmoZVBERERFRYf4OFRERERERUT4omD5UqrbB19QqjoZuj75HREREREQUTcHUUFlkM7zxzmAUEn9g9ci5sUEPx56O67euUqiejsfrqjKM+Of+3TAiIiIionxQYAEVERERERFR/iiwYdOJiIiIiIjyBwMqIiIiIiKiiBhQERERERERRcSAioiIiIiIKCIGVERERERERBExoCIiIiIiIoqIARUREREREVFEBR9QFV29FqNvugsn6fns/RRD7hDbcKYmnDpQv3WkyR+8bbkXDTP1PGVJ/hD0vWhpuRMLq/WiiOLz7xTbEdtqiOslRylecwXLukZn4UY9H9U9D+7A9gdT/QbhP+H+p+4X/9KpZ5yDq25bjLH/WKuXRBe/oQ4Tbr4LRaXJLx95Ht6Y95WeIyKifHaM11BdhlNvmoxT31uFl+6eoKcafLRbv035KYeF/hsbRJC0eroIvYhoxrwOTBtaguU/dz+i+qcHnsKKOy/Vc5ZL71yBpx7oudAqKMg4lty2egBw0YcMqoiICsCxHVANvAwDSg5h+x//RS+go0sLauO3Ih6/C3Oa9aKIWubeJbYjtlXbopcQHWVu6MTtFwEb7i3GbXqR7V9vWo220bfiqd+fD7wHnP/7p3DraODPf/hXvQblXEtvfGd1CYou2odlfOJDRJTXjvGAqh/66JdERMeuz/H0pP3oerEfpgc+M/hX3HzFFbiicR/KzxgK/FG8vmIq5v1Rv0094+FiLN/2CcbWHsIMvYiIiPLPcRUVFV/r147Kykrs2rULn3+eqh39ETRyCUZfIb7QTfv/jNceuFMUCbSBd+Hcn343GSx537epbZVj+79Eb+Yn+y3MGZbAwkkfYWrLeMT08oMbG3DV3ISeE2QztbqqZJo6N4u/WQZ32SWGhatrMbpYz2qJpltRWy9ezJyFlpp+eGmRUeOit9tmr2Pz7i+xzl+7orZXoWeEoHUyUdsAVsbfQlW64w84Nu86mfJSvT+mr17qtUOkYQkeUq9l36nk37vfk7zvu5np8u7Tf1yaNy+95zd0PoXjywvP/mRTxikQ5/O1c4x0HXBfO0qGay6k0PdBumvOzqMmYIpaR543O7+8afeeQ/f76vhL/feYlW9wbytdmrLhvecc9vVn5fW5W0We7Byf9rxkOr9K4P5CXOtBx3dDJ7ZPApaP99dOWWTfqUkY2rUN2/aI2QFDMbRoG1ZfcbMItSyyiZ7U0fo2zhxzuXr9t6++xF+e/jckXnpGzUuy79FFU/4JJ5x0spo31/G+57X7nTew4X81qGaAF/94Jjrbd6rlA7/9HfX/l59/ihdX/is+eu8tNS/FRl+G8y7/B3zj+BPU/Cf79+KF39ejqyP5oW9vr1dJfzUflG5JHmNJ+Wl6zmKnyfad6h85xy/tb/sALQ8v0nMW7zpSULqU+CG8cesetK+uwOUP62Uu12LxqomoRCvWTJ6NpXopEREdPgVVQ3XS+CYdANn9nSbgrff0mzYZJP10GPaY6+z7LkY4A1cYg1CowKw3hvzUGJTi6p+qtbJSXIU5otACUQhVzcKadqDPmOnJgRBkga0uhjcX6ffFtLJD/I2r744s+IiCbYco7Oh14os246B+Nytqf1WAKMw62xIFa7PPkSywWQV8/X68AS+VikJepEEXKjDFd/y1rv3d2DAdqLf3FbyOkiYvnWZ3Ol9kod/ZnqsQaTf1uxULNx7Qy0zJ91fKsr4srOp5OZkBgLPP+DqkCnusvJSBrr0NkZeQx+EdIEDm08XYq9eTaXNdJ2GJ83szlul96bTJfPOeu5g4n9X79LGJNHX2xeiZPXTNSRnug3DXnMgjlWaZ3/0wYbXML532Gr2eDCTEfsqN63vhRmB0XbJf3UOv7VDpmeq6vmKIDxNBSuIFJ3jJ2X2ggxvznlPXli/AgbruzX2uTHjOS5jzq+9x+SDFXs9/rcsATgRTMoBytiWmgGDxnvP3A10npLzG/+mBSSh/6V5c8ePXgTOA1398Be59qRyTPH2oZLAx6JwqNNfPV9NnBzpxpgho7H5QMrgZ++Mb0bHjXay66+dq+mjbVpz/gxoVZMhA6PF7ZqvlMhCRQYbcjr2uGbhIMpA6uegU9d6f/r8latnwy69S/0tymzKYksGRvY0vPvtEBU92mmQQd9n/9X+r4MxeZ9vLz6q/k+mV5LqyP9eJ3+zlpEfuTwZwJjlAReXIi9V7ch25rvwbO9iU5DpDL7wUr/9Hk7M/eawptXwTW7qAsm+xLxURUb4qoIDqpxj43d44+OcH09QmXYZTLx7qW6frj3/GwZJhKFHfn/+C7TrQeumpbWL+kCtAe+l3UfpTySfMxhP9xD5RKO2L/uqxsCjUVFfg4MZlrifQDzWJgmuxKOA5hc2LxZqi8BXlybiLKCTLJ9+iEOWqGahfYtQ4xDF1TF8RkJgFvYRInyiExs6JNEqYq0ajfp0oAItNjUgWAB+q9dSM1L+lCm/lg1zPzoV0eZmPrLx0n1+Rl/UyMKlAlatA766JaFmfiHZs4ly6a7VasFnOlp6aLJRLrlqNBFq2igJ3cT+cqeZzec3Z0p278NdcotlOc1/06UgGP7Yba6rQRxzb/a7Ad5n7mgu4BlF9Ic4tFtt/zT7eHN4HMdl8+ADeFOfUpoI6ERSe7g2YVQCf3Oe7He7zkvn8Wp8p8h5P3tNBKtBfHO/BDpmOdL7CaaXic3LrN9Gol3j9601XYOpdz+o5y7N3TcUVN7n7UJm1LHKSQcqJJ/fCyX1L1PsV549WQdaWljVqXpKv5d+VVp6ll4Rn1v7IYOzgx3tUACMDIDnJ4E4GbGZN047XX1JpKjvjbDU/9MLv44tPP3GlaftrL6p0llV+W80PGXERvtm3GO+K7fhqkDQZmJVWnInWV19wasjkujvf2ow+pwxQ79vreNOU3vH4oEMEdcM+S9HsbylmT56MyaydIiI6YgonoBp4OnqL4GfP6+m+hIbiZPG93ee7/5yscZKTav7XGyf32GBR+/C+WegTBcKr4nbB0irUqKfSaghvPammOsnC9Jml8sn5W64n2ZFUn4py8V+y0BhArxOrMdIjJ9UEKaAAmNEB7DXLf6JQ+r4oALgK+KpWwdyfpxmSI11e5iGVl+6CtNL8Mt4UBXp/wJgLsubBzMt7MSXCbnJ2zTnSnLvQ15z7WvIHAzGcLgr/B7e+rIMumw4YnWtOzxuBUXxcTAViK+xrKZf3gQ4ezxX7sN04QmynU6TDExCi4yNX2q1aUDOoy3R+rc+UtPe40oIVqhZUf/akrHX7EmVF+mVGsi9VsplfNmSAI4MdGWSZQYkTeOlAKFdkECcDJ1mLNfnOB51J1obJJoW9iqwgT9ZwyaZ+1TPnOuvI13KZfE/q079MBVjt7/1VzQfpW1qOb5zwn1RTPnN/cl4ul+/LSWpvfUf9T0RER4ejclCKg3/+b8kaJ2Pa/qpe4QiQfUlczW70dCQDBXeTOXvy1CR1h11wtPt6uJoepW5CR+nIwrbs8ySbkiXPm9W8LP/1+DVnaJn7grjG7FpCq7mfPxDLUZqaP0Kb+M98cDIlJs6Rt99TRrk9v06T1SZZ6zbeSpvvZwJOQHuXfnkUkn2c7KZ15vRG8x/0GlbNmtm00J68fZ/CeHfj077t/GHBf8miRiqFjhNS1iASEdGRVWABlbeW6TKc3E+/VLbh0/3yaaJn0Iojagf2doo0lcqn3hl4m2ypZkRZ0gW7tDUjYdbpFl2LYNcu6OZQLzVlV7QsCCov3TUTim5e1rYz15GObsa1cV1uapZycc2FkbNrzqr97DPsQk9QoPtHuWp/rKZyqtmfOh87sNZsSpfD+0A1n/T0xXPXOoUV/vx6061qHFOpX5IMrIymxpZMTcpyQ9ZEyf5LxWWDXDVR8rVcJt9L1Zwuik8P7FdN+exaplQ+7frY1SwxFe86do2U7UBHG/725f9RtVnpyL+xa8cku+YuNd0kUwRURESUnwonoNr9DPaIYOnUi+3BJeSP8v4zhri+A5/BRy9sA86YjHPHW52Jjzy7T8Z4PD4/dcHN14ledjp3RgHTvP2JAkf5SjbzcQ34ILaXnE+xTo7c2GA9YXcKr75+UAEjj2VDF4Rd/WMisvqveAuY2bAK7e7BJWJYONPq5+M0L8sZf4CuRrSLkJmhrrmcyd01Z6f7ZuN+is+fLq45f9Cu1o2dg4WyuZ+veWOO7wOzH1RkYc6vfc2Nd5ozhr0G4oPkEyhP00zhttfFB2nRJ7is+7dUWnIEQNmUbnh8ol4C9Vr2T5J9m0wy0JHL7b5O2bL7L8mBMuRAEKlse/k59f/IK3+cssmhbKInAyHZ30ryjhwoyX5TcrAN2cRQDoYRRDYZlE0HZd8uuS85maMLBop/huFF4m93Ha8XeMlR/lZh1arF4hURER0JBTZsuhyhbzJO1XMfPTUBu8uaMOLMre5h0cMMrS7latj0Mft8I3n5BBVW5RNto0mQtS39lFm9Zw1BLUdNs5sGutaRAwroYaXNdRTv/mRzO8/gA+5taQHrpRXiuCTvvhJNDdhbrYeQ1oFX6LyUfMGkzAv9d4GBpiVomHJvYdRcJ3VB1dif4MtLbz6qfAo55H0m3uMT+1rYcbEettzKd5Vuz7DhQfnrSneKay6MsOfOl0+SnVeuPLKCbjmS31VzYTWDk6MR2nma7vy72E3o3AOCmNKmKTR7P3rWkBywRa9jHkeQEOfXuz91zaqh2OXogenug1T59DmeXteG2LZyDPm59cgqW3IkO1nTYg79LQMZOQiDOZS5NxgJGurc5h2m3DtsuqzVMpvlBaUhzBDlQcO1e4dON7cj07z531fg3MuuVP2/zNEH5THbw7jbzMEzvPuSTQRlrZaspQsaNv2eB3dgWukALJjaO0WTPw6bTkR0pBXe71BRfgkKFIiOMUEBrGQF5KmCmDyjfovqC2y4tzTFj/vSYcdzQkRUEI7KQSmIiA4fq8+gn17euQ/vWgvy28PFWL7tE4y9tQPLerjpH4Ugf9B30n50vdiPwRQRUZ5jDRUFCNfHSTVlAmuociGw2ZlXQFPKnpSPaTq8srgP6lOsm3XTwSNPNTFD9KZ/lBvyPEzoGIzvzEvVd4qIiPIFAyoiIiIiIqKI2OSPiIiIiIgoIgZUREREREREETGgIiIiIiIiiqhgAirZr+ukk9hJmoiIiIiI8gdrqIiIiIiIiCJiQEVERERERBQRAyoiIiIiIqKIGFDli5nNuKOlNTk1LNJvpLII15jrt7yOCdX6rSOtejoeb7kXDTP1PAU7RvNJ/mBwizjuloa4XhKV/DFdsZ2WO7EwX679I8jK11m4Uc9T4bixQVzHq6eLK7o7vsKyFTvwxryv9Hyhs47n6Rv0LBFRHmNAlS/qq3F3vFJMC7GpUy9LaQYmrJ6GIYnl+m/kdD7WNuu3iY6EmbNyE9wwICfK2j0PfoixGIAH5h2vlxS64zH96RLEJjGoIqL8x4CqEFVfilhxFzY11ekFRIWjZe5diMdvRby2RS+JqgW1cjvxuzCHDxPoGDZjXgemDS3B8qm90aiXHRUeLsaCF3uJoKoT9+hFRET5iAFVIYqVoUS/JCKiY1j8EG666BMkVhfjNr3oaNI4rx82dO3HtAc/10uIiPLPcRUVFV/r1w75m0+7du3C55/nzwdYPqbJVj7/dcwYU6TnpC5sWuRpglf9O9xUNzYZCHVuQOOkq9GmZ5Nkc745GNWxHHfXpqiBkv2tasr8+8iC7G8xZ1gCCyd9hKkt4xHTyw9ubMBVcxN6TpDNr+qq0EfPonOz+JtlcNctxLBwdS1GF+tZLdF0K2rrxQu9jTZ7XpH9X8aj3Ls/37Z2YGV8CR7Sc0qoNGVi7efcrWL/O8ejpaZCLz+AlxZ5ajxkUzbnfSGxzl+74l0nKN1p80m/B/+xqHM1Zl/A9lKTfTKmQKTztXPSH5s+D/b5l5zzpmTOJ7UvcwMm49xYx9HXWi54rzXv+25mfnrTHJTXkj+/Ux3b/Zhu7Dtge77z691WWP40ufMhizR57wMlVV6kkvn8OtLdB+o9YGUTMEWtI9PxFqrUefJuy3v+3O+r66k01X0A97bC3JthBOalZOenlWaIc75ikHmdevM70/nVAq4n3+dYyGtO1k7dPqwXFgTVTqnvneFILFoitie+V+x0yebinu8X3/eY9ztKfe8AT8ZXoFx+R6XcluzfOw1D9Jy0vakSj6l0W99vsa3LkRg2TW1j/8aFWIlZ1r4D0qXc0Intk77AhntLMT3C6SUi6mmsoeou8SUzQ3zJb1pk92UK6M8kv4jUl1pynSc7xmLG6t+hXK+SmTEIRY0sihRhVJ0xKEXGQSwCFFdhji4kqCZYTTvQZ8z0ZB8Y+YVeF8Obi/T7YlrZIf7G1XlaFjREAaJDFGT0OvFFm3FQv5sdvS0ZVNjbkoUyc/CCUGkKr8+YWqsgaG8r0RejZya3JQtx5vvxeANeKhUFTzNNsjA24i0nPWqdzgpMySqfEqKQuEOckxjirj5IYn5YX1EoW5dFIVmLyQKy59jqzEELZOHvHGy20yOmhRsPIFbj7weVLp8eqtV/L64fq3Cc3F7cKCA6Tf3i68TR+jnv63yRhUdnO65Cq93Uz0pvsID8FumL1dyLx+e7oz95bHNKX9DrybSJc+c9v6Jg605PlGBKBgvTgXpjO+qeq/X1F8uYJnUfWA8p7G2lzovMcnIfyDRW7xP3rkxvP1Fwvhh7F8l7QWyrRq8n81J85sgHKcl0Q1yXyT5zD70m74MqTHXliXUfIPGCE0yFS1MIOpiCkaaV6gL1B6fy+lEPouz9yfvc2F+Y82ulu5/rPrH2Zwh9zX2Fy4Z9AnSckKapn/yukEHMQuv7Z9EG7I9Nw03zZ+j3BfEdNQVLnO+nu+PLsb1YfEf5vldiuLLFv61rnOOTAdMF2OJspxKNG7swpMY9aFLJmGkY0Gy9VzJslgig1+LuJpEJsQnBgys9/E1xTX2CsqF6nogozzCg6qbyQWXi33a0mQGUi/iCqY5h/8YlriBrc5P4IioejqqgL49AdXjM/pKSXzyqFiz5pZWyNistq/DrfEkn9omCbF/0V+VNUdiurhAF+WXJp8HCQ02isGsU+uPzLxZrioJHt/vDyMKIfGottuV6Mi0Kz862w6UpK/KpsFFoerdDFEqL++FMNRfH1DF9RaHGLFTpwCd2TjIwaV6Gq1zHn0DLVnM7IfOp/i3xl0bhU5o5HqOLD+DN9UEhSCbuAqHKJ1HorXIKP+JYJrkLjC1iP8lrwJA2n/JPYH7XL1EF1z7DLnQCBcVVq9GCzTKrS09NrhPrhz7iXtkb5RR4PFTrqfVR51x+jngyPG2arPtArhMlqAuUi/tASIh7wUp1X/TpSAY/thtrqtBH7Ot+o8amZe4yEZiITY3QOV6/zj0vVV+Ic4vF9l+z8yR8mjLS59e8x1RQJ4LC072fKfK8OJ9PCbzfIf4zrpXM59dKt/czzCf0NfclymTFzusn6flgshbogbk65Gq+Gn8S2y0ZdmnygV59dfJ9pQ5b5L5LT/M99JO1TcltfYD94r+SQXZw1oi1k6qxWc9Jbeu3iHWKMMC8xDs3oNm+duV5zdgf+AS0d4lsOZ/N/ogoPzGg6qa2uWuxXRRwrkw5dPlQDBBfGCVj5iRrk+Skmv95vmQOu3143/xSl4GB8xS0Av1FutWTazU0tZ5Us5hkgfvMUvnU+C1XoTyaGE4vFf+l3Va4NGWl4yNdOLJYtSS6kFZ9qipMyKfSrv2pZjjuwpYa9thYx9t0LVw+tWCFrGUwCoQ3jpAFZ3/BNJTOfXhXv1SaP1LNd1yFd1nTYaTbyssA6fIpD6XKb6v2I8tAUBXwZe2elUfdGn1Q1dAY+e1q+haWdR8kg4scyMl94A4ADnbIoMRk3eMHt77s2pc4EusBhBOY6HnjPoiPi6lAbIVdCM/i3sxIP0g6V+zDpu67TpEOz33nPaaHZO2s+QAo0/lV6Q7xgCTsNRcXAZV+mc7+ne76q90dIjopLsNAPW/VLBnfT2K6MvDC7MIeV9KtB32uYEy2yDC2Y33XeXR8YDR3T/dAkoioMDCg6ja75kgOd55shpdsAmGRTwid2iRjstqV5y/Z/t9scpK66cnhc7jT5G12Y02ePh8xd1O3qM2vrBoiuxYpjiq53aYcFpyFtp26RKT7aLjyM3JzzaOZrMmz8kfWcNmFeG/TwYx007I+spbDzu8UzR/zUab7IJda5r4g8sW+D3SzV18glqM06QcN5oOaKTFvTXkIOT2/Ia+5lhNEOBJRZzt2qxe6325xAk8a301PRkm46mclW2QY33eyWaB+u7u6Ok7Qr4iI8gsDqpyRTR3kF4j1O1JDRthtz7dhj5gvKS20xt87sFeku0+pfOKbgdk8SlLNVbLlbz7jl0WaciGoRsfHrlkLUYsUJp+al2GtLEDJ5k4zz0Esau1UEP103K5FiA/qJ/7dgbXeDvNHAdVkLaDpl1Xz4Km5y8JDur9YYNPBTHQzrlwFyN7rUtXK9YRQ90EY1j3uzzfdP8pVS2Y1c1T3gWru57lOc5YmcR/I5qGqyaMdBMkpQu1r6PPrrU3XnyEppL/mojWFG1haZNQSWa0o9m9c4WqqF4XVBD6BP7maD+aC1bSxfdfR8htbRHS0YUCVc/rLqWObnheBVrMsGUxzdwLucddi8apVWCWmxdfpRVmx+yOMT/sk3teBXNd6uPgKP9aIWd6tWn2hqjDH1alcrOvMh0tT7lhN8Lydyt38gaA1Gpm7cBsqnzS1rhpQoiKHzbpEPqqn58kArWXnPvGv0TzKfsKuZ7MW0HQqEn29uPrQZMmu6fMO5CBHI0z284lKF4A9zeQycvVRlILvg8ysYKPPmPHJpqHpRlrstjD3QTj2fXCzcf/G509X/QS9gYh1H5yDhbK5n6/5Zu7SpOSiP2CY89v8Mt6U/cPEvWZdmf5RAYOluuaOxzNbe4mvnc9C/06THM3vypj5O4b+h35VDama/KXXtlPWl5Wh3PlM8YxuG9UNn4kc6IV2+2uViCjPcNj0bgr64nF1ALbpphAuxrC0/qHXbQFDsKttZRg2fdzt+O3NI9FbvGx9YjJmP2ottlmF/hBDcQcV/OXTXKM5jCuAUO9ZQ7HL0QOdZniu7cjmccvEMj1cs6uGxFsIcQ+soIRIU2a6ICNHgUs3UIQQFCC5Bw3wpFmmpbkf5qgRyJJpD5VPik5bwBDqYQUVsIOGb3avJ8/LC+hfZ6YpfD4p3nNjnJfUhf6Ac+wL7ox10gR+7mP0Xkvy+MzmYMHHptJpDNud+fyH591WoqkBe6vN+yBcmpz1dEFcHbca9tx9zWUW/vymzQd13uXIdTJ/rXy3fhIB/u2nO7cu9jF6z1tSbs6NOy9NskmhdR+Yx+S+h0yZz6/kvi7lPtRQ7OpnLCJcc/FDeOPWPcCLg/GdeZ4anMCARjbtcw8c4VsvsRyNHRMwY9iW5NDpYb53BPd3ovz+WosBddPEZ4ps4q6bF+qfBbG+99qt9KTc/ldYtuJDjO0ox5Cfpx98g4joSGFARZR3rAKeP9gMz18AJ6Igqe4V6wFAqmAvv6jforroRCwf7/lxXx0o7Xd+B6rwpDw2IqI8wiZ/RHnmxoZaVTtlDi1NRD0hVf8lvbwb/e0Op8Z5/bChaz+mresM3fSvINzQKYKpT5BYzWCKiPIba6joqGI9VdYzqURsrtWzjGZAqZovhurjZDWPer+GNVSHSz5ec4V7H+SKt7lnMKtJX4p1Cy5/rKZxw7caTf8KuobKOp6ypytw+cN6ERFRnmJARUREREREFBGb/BEREREREUXEgIqIiIiIiCiiggmoWltb2dyPiIiIiIjyCmuoiIiIiIiIImJARUREREREFBEDKiIiIiIioogYUBEREREREUXEgIqIiIiIiCgiBlREREREREQRMaAiIiIiIiKKiAEVERERERFRRAyoiIiIiIiIImJARUREREREFBEDKiIiIiIioogYUBEREREREUXEgIqIiIiIiCgiBlREREREREQRMaAiIiIiIiKKiAEVERERERFRRAyoiIiIiIiIImJARUREREREFBEDKiIiIiIioogYUBEREREREUXEgIqIiIiIiCgiBlREREREREQRMaAiIiIiIiKKiAEVERERERFRRAyoiIiIiIiIImJARUREREREFNExGlAtwjUtrbjDmZpRpd8JNgMTVpvrt+Kamfqto0hVgzi21b9DuZ4vWDObxTl6HROq9XwPK5//eohriILE59+JlpZZuFHP+32FZSt24I15X+n5/MBz3l3XYvGqVVi16re4fZxeVPAuwe2PiGNafK2e72HjbsdvRR4uvk7Ph1R74Vo0X/hTPXcYVE/H4y33ouEo/M48PGJYuPpe8TmZgzycOUttp2X1dMT1oqMSr7nCFfncXYYFl69F/bf0bAr3PNhz5YljNKCqw2PxStwtpsaNXXpZalUNczAKG9Co/0ZOj9XrN4mox9zz4IcYiwF4YN7xegmR4brFR1lQ1rP+7uwm1AzahqaX/0UvoSNHB0oNOQhtVKB0JxYepoeIRPnnGdy+dRtio9MHVbetHgBc9GGPBFVs8pfRIgyPAdubr0abXkJEPW/GvA5MG1qC5VN7o1Evo6PFUsyePBmTJ/8EC9brRdSzvrUEvzwHePnpWWjQi6gQJDBn0q2Ix29FbXcf5NYvUduJT1qGFr2I6KixaxZ+9dYhEVQtQa1e5NPSG99ZXYKii/ZhWY6raRlQZVJ9Gkr0SyI6TOKHcNNFnyCxuhi36UVEFNVPUT96KA6+9SBuP6AXEREdZf741wfx8oGhqEnXrPnhYizf9gnG1h7CDL0oF46rqKj4Wr92VFZWYteuXfj888/1kvwh+y7MGFOk56QubFp0PtY261mp+ne4qW5sMhDq3IDGScE1TNb22vFkvBqb9TIXva39TYehmZ833Y6ETp/s+zUNEGlpHmTmg/2+Tfb5moNRxXpW2L9xIR6Y63nOL/sa1cT0jJYmr1Kz0jVEz0nbg/LLe3yJ5bi7tk7P2Lxp9x5bCOq4IP7uFQw30uVPkz+fgtLtu+Y86fZfQ8n8cOe7P5+C8yAz2fdozpi+ek7o3IyFxlPHGxvuxRSsQ/y1c9BSU6GXHsBLi+7CHPtekc1ERD6tjL+FqpbxsK+EgxsbcNXchJ6zqO0Zl0qiyXxaKpuu1OLcrQ24H9ONdO0Q216Ch/ScIttH11Whj561+NeTtVO3D+uFBSlrpwLyUrE/D6xzG9sq8n/nVOM6939e+M5v0D0QeG9GuDbD3psh7wPZ7/FK57wEfBZmJPv93IKz3rkPP9l9FVb9sFIvP4RX7/fUHsnmdc77QusaTJ69VM9YLvnlb3HLqN56zuCsK/tOTURyK61YM3k23FuRrHSNdH3Uv4r7rl+A58XLaxevwkQjKS7Georsa3TzSDip8r6v04QnJuPxgWb6U6UtlWReNorz52zHtz/Bm5dR1tHH1S7SPftRa5GTL951v7UEzaPFV8cfgmun1OfJsIT4DPkIU9N9FnjvX8/njsX6PBhtXOOS85mht9Hm+gyJo0Hst9z32ePdVojPlMA0ZaC2EcObi5aJz0VjfwnxGVrr3lKmz97k5+o6nG6m3d5W4GdgUvKz1Xvsns9vwfu57GKmS6XJ/h4QAo7LYp2H5CY9+8win0LxpstzfkN9jykZrrmQcnMfWHmIpnVAjbUNmY7NI6xz5d6WP92uNKv86ec/Xr1/mNtKm6ZseK8BWzLfQ+dThvNrCXPuAtZJd3zq864cLz9dk/oBUvwQ3rh1D9pXV+Dyh/WybiqsGipRUJ4xBqLQkOzLdHfcU4CQhem64UgY6zzZMRYzshpsQRZm9AAUuhA1pCY5IEWPDNygC2wQhSsn3eq69BekZFpmDNui+3QtxKbOGK5sWKTflYWsWUB98vjvbkqgZMwc10AashB5R02ZKy+t/WVL5tUF2GLvS0yyX9qQGs+gEOq8uI/v7tcu8AzuIQvJohDp6q8mgiLj2MITedIyAXv08fnTpPfVIQIae18in2Te3jQ/+cxCFlitYMlOz3Jsj01Lcw3ogr4slIv1kwVlmU9iuQygnG2JKUIwJT+kbsYyq+mGmtYhUVyFOd62+LHx4sNMfrFb661M9MXoOu8AEBWYoj789baadqDPmFqjQ6j8INNfavb+Fm1GeY2/06j8uzmlL+j1RJrkts00yQ9X8YEvC1L2thZuDPq0+wqXDfsE6DghfTBl5KXVF9IfUMjr3gqurfWeTBRh1Ezj3InrcgqWJM+HPL/F4vPCvOb0tSsfqrj3l70w92a4+8D6jLoyJj8f7HWWiC/waJ9NvUfdIgrvEAGEbIY3GWtae2PkdbeLEMEiAyXz/cmT78Or/Se6BmCwgimIQMxeZ40ISQRX4GU39ZuM+zYd0sv8rl0sgimIoMDZn5iMAGHpbL3sCbkHGfwFr6eCkpvPwtvG+2v2jsQtjySPzVb5w1W45dtv632K4+uqxMQIA0zIvLylf4ven8iDIrE/Tz6t+mGZkWaxL3G0t6xaLEK78Ot4WcGUzgtPcFY7eKgoD+3Du3o+kPwM8X0WTE/2y1H3ryxMJ+/flR3ib1wDHMjCmCj4dLg/Lw7qd7OjtyW+/Rba25IPf3yfKZnSFJb8fLQeDDnpFp+hj883ipZhP3vV56p/W+ozs3kZrlJ/24CXOsW8DEac7ZmFyGRTP3kugjxUa74vC7x6Xk5mYdNu6mfvM4gskIvzL4NaexsLN0Lkifez3sqn/s16P3Lf9rFlQ+5vxFvOvqy0iXzznjv5PVa9T18Dch2x/5k9dc0JObkPRLJrLsZesc5KUa4qr74TEzoa1PddnzHj9XdwQLrFvmLiu9W55urfEleBON4a9/UVHxcTgdMOrLWDl5zdBzqYMq5J6zs6IIjNlE+hzm+4c3djg/dzQEzpgsVdr4l8641+xnMPn5ZvYov4Gi/7Vu76UhVUQFU+qEz8244286S6iEJGdQz7Ny5xFao2N23A/uLhqDIL+Gk1Yu0kXUhZJP5WLJE1F04haFIP9KeKlYnArQuJ9cki5ObX5M1SJm5Ga94hC5JOGhrR1iH+Kz3NKUhtrvUEmfWvYLv4r2SQHSgsQvWYIl8+RSPzyh3wta3fIvKsCAOc7yFRQJQ1BCLdrifx9dWu2qCqBlnjIAqIrvytw2NRgg5P4dqbpvL5E6x9mdsW6ZFBZcmwS628FEHu98T625vM4xPpEYVgBF1PMii2C/q+a2QoBhQD+zu26fluEF+O7qe4LdgsZ0tP9Xx4up8GPdQkP6gqUOX54nM9Capfp75wYyP0lmaOx+hisR3z6aMoEKwV+3PWsbmeUnrTJAKz6gq1TuYnhl+irEis+vpJet5DN8Pd/lry3PmvOU0Ftsnzt7tDfIIWl2Ggnpfn3F07VIctKt32/WR9pshrNxc11JnvzXD3Qfn8WRhVLK9x89oU92JtxM8mWaNh1Ma8t1cEO0Wn4Aw1dy2uGtUbrU+YtTXPY8F6EcxUnucU8M/o31ts520859RqLcVfZLzTf7AveEnvEgzuL/7b+6ErKMjeJbh9XCUObWp01bQtfeJVHCo6C9/3DmQhAz8nEHkeH+4V/2WddsETQLrzwMpLd5pEXj4q0oRKnKdG7AuzjskaXXBipaxRC+qTdhlOF/fTwQ+fwR/1kmBWgdy5PxP7xOdFX/RX95R1/x7cuMxVqFKfKcUxiFtMic+/WKzp+byI6MYG+eRbbMtVcGpBrbPtcGnKhusJu/6c6zPswuTnaujPXpF94nM1ua2P1H1ZPsj7AZU/bqypQp/OzbjfOL6Wucvc3wea+ztDFvojHJsMLF3XSQItW0XhvbgfztRLFFdNhH+dXF5zlu7fB0riBWedPsX74AQ/WmC6xfUlA7DkNdeCFTKgiZ1jPAgV+xkmIoXEW/q7PYf3QfWp6nsv8VoyTS3rE8bxm9LlkxDi/IY7dzGcXir+6/jI+BzIZBv2yWwbnG400+PxgSg7Fw37THzL50ZBBVRtc9eKwoeseZA1RUHDYluFVvVU2q5NkpOqZQoobOWTRLsqEMbGGQWrESLBnVuw2bhJJG+hfHOtJ8hTBXvj+L1No1SB1B28dYt8gm/uT9fqOQIKwH4zUC5vmsQrruCspwwslSV2/75UEGsXuFWQm8AWb0FaFYK915O4LuVxywJ8YABYh+aNXclrM1Ktm018gOphdO0psNlHp+eJdOCX+gHsdX3OJ/C+CtCtAkJ8UD/xr3zaGrC/gEJEahXoL+5N84M6pbgIqPTLQM0fqIccQ0Yk87B83PDgc9XxgSvAaJt7Pu42Aiy7pse8fpNN6CTrMyX9tZuFTPdmyPtAXb8Bnw2ReYKX53/1E0y2A6xxg9X5kDU4q9RQ53pSzdHKMFgHJlYQZgYq1+I8scqhd55zbTszO1ibaO0noDYpnDNwisgmVftmpls1/+uNU4zWdNKhve/pVxZVC+ap6ek2lZeH8PYGz1bXP4e35dPSgeJIw6xjqPyhbBopa6ZSNU8cmv5JrWMf3jevJ12TYhWYrPtX1kKbnwOyxrmPUYg6s9Qs6HWHLkSl3Va4NGWjbae70Ptuh7eAH/Kz1/e5KgJBkZfuYCyfWPl9cOvLnkKrLgRn9VkfnmzSZ+alqyllSLm75mzdvw+kgx1GraL3u1hIle6HXhN/Z1xzVkBjPAitvhDnFotgpsk+Uzm8D3QZwQyg7dqwzd7v1rT5ZMl0fsOdu4QIFK1aULWdSLXPh0eBDUphD3cum7kVYVSdVSjx/iaU7JPg1CYZUy6eMPcYXUg0g0HVnMdX05GBbjpYYjSHUs2Y9Ns5J4OpGlkraOS5rtU7tohzJY/b21zMYBXmRf7IGi7ZbFCe56ybj8ov9Fqr1khWe+tJPtUKy1toCOR6GuTelzOlq3LvjpYT0K5fBtuGPbLZip2HYrKaArtrSjOTwZTspyTOnXOvyGaB+u1cO9z3Zo61PmE3PzOnZI3I87vlWeuNkTfbwctEVLauwU9+FSEkeXS2tf37ZW2SbOomt5e6uVs6hzbd50mzNdn9jgpd6xOyeaLM91T5Yz2tzQVZg+P7HBCTWYg63Ho8TU5huPufvZRk9f+yajnsvAxuAp5/Dut9IAIVs0WICnA6RaDreZiWmzTtwF713aqDFxUEQZwjb7+nzHJ6fu0mq7I5oGpqKNOW7vcrLQe7QrQIStm1IHsFOsqf3SRPBlbmk2qroFVSOlTPFw7VBE33u0kWtrItIAq66eCmpkxP1L01LPrJeJasZpgJ/MnXqd5gB4tGsyY/f9PFnqSafsUu8P0wq1Ur2I7dckbVGsYw3Ns2fOYFGCLyeI/3i7T5ajyggyWzH5ZPfbV1flM1HUzLehp1cOO67J/Iqep875NTL/2kUj9da9m5T/zbD6dHaD4TxNssRD2h8hEBlTw956cYFGfmVF8Q5OtLGYpuhrlxRcb7zHvtqhqibIW6N8PdB76miz1p/YcqwPXWjLjZzes8wYtn0IqsrV+An8jtyMAqsLlbOu/hY5FNvftbDRfzgsrL3jhrrCcvx30fZ4lLqn23CD7DrOPyPBZcL/urVWJiYG3eM3hf5EOfwZfh7/SS7FkFrT6lZgfzFLy1GbF+SDUAQ2rumvJgWaQpIvX55Dxc6sZnb96z8tvVvFHRzcuyam4Vhl0DmWwW1y05uebCyN01p2o/XU35LDeOENv21GipWiu1rnU+EiLIMh945uw+sJv46wDImrwDgISRxfnN5tzpWjCrn5W/+0KSVSvf1vWMng/yFU4TaewSAVWuFGhAZfP2SxGBVnOIAm0PkB2C1VPZ7vxKfi4KSLrpYDJY0h349ZzS/CwS4gYcUm3XjthP6tVMVtp2qqJWsp+X/RRez1qSzd1ctYkzm13zVl83bw2PSH+3mscFs/rcuAfzkOmRzb2c3xyz86mm2Qi87P5ga4ML8CJYkgMWyGPNdA2m7hMoRx2zrqfFvgKk/8PTehKkZ1KKo0E2AcjwAac6f4oPVKe9t+pTFTSYRbasvgbJDrnp0n08ntnaS9zen+EevcQvoG9h1vwPYNyj5klWn6qSMVOda8C/Tkhh7k0hzH3gNH921XCK+7ghoMZTjganrqeoP4C7FI9vOqSazvmvR7ceC14qTxEhxiF8LPsjmVo/FksDgg8l2XTwt79MFwweTlafqt6jZhjnQgSj141E765X8biqNQuzjtdSzLZr8wKCqoYPxXdk32GIBz2/CCXZ7MY1SIOH1VypClPtz3XZWd41ypfga3qsO8LrOZvVB6TKM+CDWNeZD5emqORIZuoJu9O0Kupnbyo6aAwoVGdN9185d1z0fLDP3c1GXsbnTxffB2Ye5Io/YPaNnhhSqGsuZ3J3zdlN+bwDN8nryR0wCaqfmggg5svmft7md7m+D3LxADXc+Y187lTQlebh8LdGiM+TQ+lr5uOfYbh8QLXreL2g+wpq2PSggkyk4cADC/0W3/b0uumHTZedgvUQv64OydlIHdQkh/K2CmAlQcds8A4Dvb1pIfZU6yGknb9zF+bkPtRQ7HL0wCybGfqHbl6LAXXW8O6uPPOeF9n0ydffyFvIlDURWdbUqf3IEQyNWovA8+jdl3sgC5v3uvNeI/5h042/sY8x8JpLcWzGMM+ymZWvaZJ3eNTEOizsuFgPY2p9EAd90bs6XEtBH16BQ5HaTV30rJbsmKzflyP1GJ1LVRpKze25t6PSs3O8HonQ06RAD2mKFwfjO/P8H3hBnwVS8tzo+0mO4hjYp03znhdxvho7JnjuA/e9qfahhmKXowdmd22GuzelMPeB9zMj+PqFM/x2wFDo9mfX3syfW4FDopufd97hyR3G8OMp17Ga5lnNA71Dq0tBadcyDS/ufV9yrWPtr8zZf1TBealG3+vvTpMvLwO+NzKuEzBsevJYvUO+/xT1P5qM2M5VqH75X/SyJKuws89/H3qF+MxwFZzUe9bQynI0MKf5kWs7slmQNQy3HBXP3c/IG2zJp+eeNIb+HEvD+5mqBOwrxGevlZ6Aoa4D+T9bk5+rwYGm4hoASPPmg5EHqYMVmfdGOn354MkD/X64Ie8z8RyfTG9zP8wxvg/83yH2sbiv1VDXXAi5uQ/c+WEeA3zb955jz/kw2Mfo+x635eI+EFI9JDD3Gy6fMp9fKfO58+aRlDqf5CA8Cy7/Z1zYFfxZZ7vnwR2YVjogzU+zZK/gfofqaKUKiKVG0KdZBccIQQUd04K+iHyy+uI//NRvUV10IpaPd/+4b1AAK1nLZV+qKM3/qHtSBSU6OIr8oIlyJsxvsxyrAgMFomNLqkDJWi77UuVnWcH0d2c34ZfntKX8zT3lhk5sn/QFNtxbiunZRJsZFHiTv6NFqv5Lerndp4foGNI4rx82dO3HtHWdrqZ/qfovWcuDmlBSj9MjAfro5d4R9OgI2DULTTt748LLm7AgqLKCiI5pwX2a7eWeUf3y0beWiGCqNxIvpQmmZOuXSfvR9WK/nAZTEmuoepS32U4wq0lfinUDm8X1tGzSrWd6XD6mKX8dDTVUlq+wbMWHGL7VbPqXonms2az3MErV/NDliNzHh1lQ0zohsNlqAQls6ujlbWaYx2ovXIsapG8Oc7RI1XzJRTafazqVNVS5ENh00itdc63cczUpSyVC07hCEvo+qN0R2Ly/MPLHaurXb+sEzNylFwWQTf0mdAR3JeguBlREREREREQRsckfERERERFRRAyoiIiIiIiIImJARUREREREFBEDKiIiIiIioogYUBEREREREUXEgIqIiIiIiCgiBlREREREREQRHaMBlfyR2Fbc4UzNqNLvBJM/JGqu34prZuq3CoJ1vDfNn6HnqXDE0dByLx6fn+ZX+W7oxPZ1nbhHz+YL+YO3d6z+Hcr1fH6SPxy8A0/foGeJiIiIsnSMBlR1eCxeibvF1LixSy9LraphDkZhAxr138jpMf6aOuWD+CG8MWk/EquLcZteRNk4HtOfLkFsEoMqIiIiioZN/jJahOExYHvz1WjTS4jyw+d4+tY9wIuDcfnDehFl7+FiLHixlwiq8q+Wj4iIiPIfA6pMqk9DiX5JlE/uebANsa4BeGDe8XoJRdU4rx82dO3HtAc/10uIiIiIwjmuoqLia/3aUVlZiV27duHzz/OvcFE+/3XMGFOk56QubFp0PtY261mp+ne4qW5sMhDq3IDGScE1TNb22vFkvBqb9TIXva39Td1r5udPt5ZYjrtr68QL2c9pGiD20zzIXDfhSZu13hA9J20PSJvsv3Klp9vN/o0L8cDcRj0X0sxm3FFjbsibHs2zXuC+vOfFOfakUOc3FNn3aDxcKW+6FbV2PlVPx+N1Mby5aJlIey1GF+vliXWI17bomRgWrq7FuVsbcD+mY86Yvnr5DqyML8FDek5R26tCHz2Lzs1YOGkZ7C1h5iy01ED83VuoMtJ1cGMDrpqb0HOWGxvuxRTPufOv9zmeXieu6NUVKWuncnfNyT6EczDKziMh8Pz6rhUhzb2XWrhrPFfXnEP2RZv0BTbcW4rpzokjIiIiSq+waqhEAWrGGIgCdrIv091xT2FbFrLqhiNhrPNkx1jMyKpzvDEIhS6MDalJDkiRbUd7q2Brpns5tss3Agp3cj8zhm3R/bUWYlNnDFc2LNLvynRdgC36uOQk+4ANqXkdE6r1KjrtV5aafb70/rIlC6MjXnH25aTHc/zy+GTBVhZ67XVXYqqRJkGdl7GAKPQ623vtAvfgHmHObygyEDoHm+O3Iq6nhRsPIFZzJxaaaUJfjK6zAia13qLNOBgb7xsAos+YWswZlsBCta0GvNRZgSmrp4uQTZPBkgrOkvtb2VGFOeY6ivi7louxV68n09RnzHQjTTLdIpgqFcGY3k48vk6ENwFu+Eys3Qvt2/S8R+6uORmczwLq7e2IqSmBkjFzXOfOugbKXOfuycCEZxLmGs/hNWd6+Jsirz9B2VA9T0RERBRCQQVU5YPKxL/taEtZwBaFseoY9m9c4iqEb27agP3Fw1HlKkyn04i1k3QBbJH4W7HELLjdneUT94GlRUDnFmx20lSHLbKwWXqaPzCTBV5n+41o6xD/OevJdLlrh9rWbxHpK8IAOwaYORWjiruwqT4Hfb6ar8YDrsJ3IzZv7QKKyzBQL5FB15QxRap2wKxBaJtbbZyDRbhG1iSIY3PVINRXu/4m8/kNK4E5k9w1SC3rEzgoAqj+ngoUV81P8zKsFS/7DLvQHQi5apvEtpt3iDyIIa6uJxEEVVeI7SwTy9UKykNNIjhz1rEdwEuL7nLW86Vp5niMLhbr1Bs1WynM+NYXQFcvPJNixdxdc+L+qfUEtfWvqOCsZJA9auQiVKtrwH3fRRPiGs/hNed2AtrF5R07n83+iIiIKLyCCqja5q4VBbkYrlQ1Re4n1pahGFAsCnpj5iRrk+SkapmMAtlhtrtDBiFmQGcNdLF/67O+oGd/h7vKYXOtJ4CTT919x5akghJXQbp71NDXxv58TchiZWL/XUis9zS1Mul+aNtfS9HUSst8frMga41a7k1OZnM8Q9tOdzXKux0HxLnqhzP1vNLxkTvASewzAqEK9BfXnKzF8u/PH8ClEx/UT5y7BFpCnLtY6Sf6VbCcXnOyptK4Bu7wNMezzm+GayAbGa7xXF5zRERERN1VYINS2MOdy2ZJRRhVZxW4vE145JNrpzbJmFI/me5ZbTvbxb/J9KoCqffJeRiyoFkja+CM49M1aD3B6ocl+zAl8zDMMPPRhTu/Gan+SrLWSDflk5NszqffzqhzH97VL1M7gL1GLObalzE5fbZyLNHRS78KlrNrzu6DJGux7GsuahPSMA7zNR6kq+ME/YqIiIgoswId5c9ukicL3sCQEXZ/j23YI+ZLSvOpE4TdDNET5KXqGJ+G1SQugT9lKhSbTfKkSCMVzkB5qfgvsTZ9M65Eu7s5VpDmD1SBONlELJNU5zccVdODHVjrGewhjDNL+/prpLxi/dAH+/C+ypcd2CvS2Ke0Qr3Vbd7asepT/U30hMZdJ4p46RNc5u6kpeXumrNrgzY1Zfpb7zWgr58shbrGe+Sak75EWRHQvoujJhIREVF4BRpQ2awmfskmS6Ig3iwK0bFpuGl+NgWp7rt28SqsWiWmxdfqJW65CPKsWocylNvNuOzaAz0rWf1NYvieffwB64Tj70tjDXTgafLXfDX+JLLcP2hAszFfh+aNXb6BDGRtRPraJ+/5Tbrkl7+18vuR23GJXmZr2blP/NsPpzv55BmBL4X4/DsxJXYALzWlCafktlTt1zrdR0v3qQoYzCJbVp+qCkywt5Mu3XoAheGXfKUX+OXkwYIvePGPwIfmZ5GQga+41qxrRQ4s4R4VMKww13iPXXMZBvogIiIiClJQw6aHHgpcNxtyMYdvThNk+Lan100/bPoluP2RWzBSxhqtazB59lJrsS3l/szhqa2CaknQ8RjceSCb463FgDpr6Gsnfa7jl/tYgXJRwI1tTb9tP0/hWeZhcxlm1MA3dLo32Ap1XmQzMqPWJPT5FWQAO7FSvOh6FfddvwDPW4sd7qHH5WAQL6B/3XiRT7oZXmCw4h0O3Ro23RlSXXMNv27TzQxdzMEs1Pv9XINS2GloM7fn2o5Mzzqcrodu9w6vfs+DOzBtaAmWjy/GbXqZI4fXnPfcbm9aiD3V3uvJfa3IQVzUUOxy9ECzP1YIoa5xIRfXXNJXWLbiQ4ztKMeQn5+klxERERFlVnC/Q1V4UhVadQE0ZQGPelRQMOOjA6oO87ep8on1W1RlLw7Gd1w/7strLlsz5nXg9otODA5OiYiIiNIo8CZ/BSBV/yW9PKg5G1E4J+Hy1SUouuhDvDHPaPrHay47N3SKYOoTJFYzmCIiIqLssYbqcAhqgijIZlGHfeTBNM0dk2Qzqyg/qFtAjooaKk0EBNsnwV27kk/XnKc5YCpHJm1WU7+ypytw+cN6EREREVEWGFARERERERFFxCZ/REREREREETGgIiIiIiIiiogBFRERERERUSTA/w9dolf4c5kXnAAAAABJRU5ErkJggg==;" vertex="1" parent="WIyWlLk6GJQsqaUBKTNV-1">
          <mxGeometry x="610" y="510" width="650" height="177.76" as="geometry" />
        </mxCell>
        <mxCell id="0ISA939oSE8X0OfDFbq7-28" value="dispatch" style="html=1;verticalAlign=bottom;endArrow=block;curved=0;rounded=0;exitX=0.5;exitY=1;exitDx=0;exitDy=0;entryX=0.5;entryY=0;entryDx=0;entryDy=0;" edge="1" parent="WIyWlLk6GJQsqaUBKTNV-1" source="0ISA939oSE8X0OfDFbq7-7" target="0ISA939oSE8X0OfDFbq7-26">
          <mxGeometry width="80" relative="1" as="geometry">
            <mxPoint x="1040" y="450" as="sourcePoint" />
            <mxPoint x="1120" y="450" as="targetPoint" />
          </mxGeometry>
        </mxCell>
        <mxCell id="0ISA939oSE8X0OfDFbq7-29" value="&lt;span style=&quot;background-color: rgb(204, 204, 204);&quot;&gt;大小为50M：&lt;/span&gt;&lt;div&gt;&lt;span style=&quot;background-color: rgb(204, 204, 204);&quot;&gt;reduce_bucket_size&lt;/span&gt;&lt;/div&gt;" style="text;html=1;align=center;verticalAlign=middle;whiteSpace=wrap;rounded=0;fillColor=#CCCCCC;" vertex="1" parent="WIyWlLk6GJQsqaUBKTNV-1">
          <mxGeometry x="1200" y="204" width="130" height="30" as="geometry" />
        </mxCell>
      </root>
    </mxGraphModel>
  </diagram>
</mxfile>
